<svg width="15" height="15" viewBox="0 0 15 15" fill="none" xmlns="http://www.w3.org/2000/svg">
<path d="M7.50615 1.35085C9.51171 1.35085 9.7492 1.35964 10.5379 1.3948C11.271 1.42704 11.6668 1.55011 11.9307 1.65267C12.2796 1.78746 12.5318 1.95155 12.7927 2.21235C13.0566 2.47607 13.2179 2.72514 13.3527 3.07384C13.4554 3.33757 13.5785 3.73608 13.6108 4.46572C13.646 5.25689 13.6548 5.49424 13.6548 7.49561C13.6548 9.4999 13.646 9.73726 13.6108 10.5255C13.5785 11.2581 13.4554 11.6536 13.3527 11.9174C13.2179 12.2661 13.0537 12.5181 12.7927 12.7789C12.5288 13.0426 12.2796 13.2038 11.9307 13.3385C11.6668 13.4411 11.268 13.5642 10.5379 13.5964C9.74627 13.6316 9.50877 13.6404 7.50615 13.6404C5.5006 13.6404 5.2631 13.6316 4.47437 13.5964C3.74135 13.5642 3.34552 13.4411 3.08163 13.3385C2.73271 13.2038 2.48055 13.0397 2.21959 12.7789C1.95571 12.5151 1.79444 12.2661 1.65956 11.9174C1.55694 11.6536 1.43379 11.2551 1.40154 10.5255C1.36635 9.73432 1.35756 9.49697 1.35756 7.49561C1.35756 5.49131 1.36635 5.25396 1.40154 4.46572C1.43379 3.73315 1.55694 3.33757 1.65956 3.07384C1.79444 2.72514 1.95864 2.47314 2.21959 2.21235C2.48348 1.94862 2.73271 1.78746 3.08163 1.65267C3.34552 1.55011 3.74428 1.42704 4.47437 1.3948C5.2631 1.35964 5.5006 1.35085 7.50615 1.35085ZM7.50615 0C5.46835 0 5.21326 0.00879078 4.4128 0.0439539C3.61527 0.079117 3.06697 0.208048 2.59197 0.392655C2.09645 0.586052 1.67716 0.840985 1.2608 1.26001C0.84151 1.67611 0.586418 2.09514 0.3929 2.58742C0.208178 3.06505 0.0791665 3.61008 0.0439814 4.40711C0.00879628 5.21 0 5.46493 0 7.50147C0 9.538 0.00879628 9.79293 0.0439814 10.5929C0.0791665 11.3899 0.208178 11.9379 0.3929 12.4126C0.586418 12.9078 0.84151 13.3268 1.2608 13.7429C1.67716 14.159 2.09645 14.4169 2.58904 14.6073C3.06697 14.792 3.61234 14.9209 4.40987 14.956C5.21033 14.9912 5.46542 15 7.50322 15C9.54103 15 9.79612 14.9912 10.5966 14.956C11.3941 14.9209 11.9424 14.792 12.4174 14.6073C12.91 14.4169 13.3293 14.159 13.7456 13.7429C14.162 13.3268 14.42 12.9078 14.6106 12.4155C14.7953 11.9379 14.9243 11.3929 14.9595 10.5958C14.9947 9.79586 15.0035 9.54093 15.0035 7.5044C15.0035 5.46787 14.9947 5.21293 14.9595 4.41297C14.9243 3.61594 14.7953 3.06798 14.6106 2.59328C14.4259 2.09514 14.1708 1.67611 13.7515 1.26001C13.3352 0.843915 12.9159 0.586052 12.4233 0.395585C11.9453 0.210979 11.4 0.0820473 10.6024 0.0468842C9.79905 0.00879078 9.54396 0 7.50615 0Z" fill="white"/>
<path d="M7.5056 3.64893C5.3769 3.64893 3.6499 5.37485 3.6499 7.50222C3.6499 9.62959 5.3769 11.3555 7.5056 11.3555C9.6343 11.3555 11.3613 9.62959 11.3613 7.50222C11.3613 5.37485 9.6343 3.64893 7.5056 3.64893ZM7.5056 10.0017C6.12459 10.0017 5.00453 8.88237 5.00453 7.50222C5.00453 6.12207 6.12459 5.00271 7.5056 5.00271C8.88662 5.00271 10.0067 6.12207 10.0067 7.50222C10.0067 8.88237 8.88662 10.0017 7.5056 10.0017Z" fill="white"/>
<path d="M12.4141 3.49481C12.4141 3.99295 12.0094 4.3944 11.5139 4.3944C11.0155 4.3944 10.6138 3.99002 10.6138 3.49481C10.6138 2.99666 11.0184 2.59521 11.5139 2.59521C12.0094 2.59521 12.4141 2.99959 12.4141 3.49481Z" fill="white"/>
</svg>
