<svg width="13" height="13" viewBox="0 0 13 13" fill="none" xmlns="http://www.w3.org/2000/svg">
<path d="M0.0308789 3.37631H2.96437V12.6612H0.0308789V3.37631ZM8.98575 3.37631C8.84165 3.37631 8.69755 3.3851 8.55344 3.40269C8.42993 3.42027 8.30641 3.44665 8.1829 3.48182C8.05938 3.51699 7.95645 3.55216 7.87411 3.58733C7.79177 3.60491 7.68884 3.64887 7.56532 3.71921C7.44181 3.77197 7.35946 3.80714 7.31829 3.82472C7.2977 3.84231 7.22565 3.89506 7.10214 3.98299C6.97862 4.07091 6.91686 4.11488 6.91686 4.11488V3.37631H3.98337V12.6612H6.91686V6.80537C6.91686 6.78779 6.91686 6.75262 6.91686 6.69986C6.91686 6.64711 6.93745 6.55039 6.97862 6.40971C7.04038 6.26903 7.11243 6.15473 7.19477 6.0668C7.2977 5.96129 7.4521 5.86458 7.65796 5.77665C7.8844 5.68873 8.14173 5.64477 8.42993 5.64477C8.92399 5.64477 9.28424 5.75027 9.51069 5.96129C9.75772 6.17231 9.88124 6.45367 9.88124 6.80537V12.6612H13V6.91088C13 6.29541 12.8868 5.76786 12.6603 5.32824C12.4339 4.87103 12.1663 4.52812 11.8575 4.29952C11.5693 4.05333 11.2193 3.85989 10.8076 3.71921C10.4165 3.56095 10.0768 3.46423 9.7886 3.42906C9.52098 3.39389 9.25337 3.37631 8.98575 3.37631ZM0.432304 0.369284C0.144101 0.615473 0 0.914417 0 1.26612C0 1.61781 0.144101 1.91676 0.432304 2.16295C0.720507 2.40914 1.07047 2.53223 1.48219 2.53223C1.8939 2.53223 2.24386 2.40914 2.53207 2.16295C2.82027 1.91676 2.96437 1.61781 2.96437 1.26612C2.96437 0.914417 2.82027 0.615473 2.53207 0.369284C2.24386 0.123095 1.8939 0 1.48219 0C1.07047 0 0.720507 0.123095 0.432304 0.369284Z" fill="white"/>
</svg>
