<svg width="14" height="12" viewBox="0 0 14 12" fill="none" xmlns="http://www.w3.org/2000/svg">
<path d="M13.603 0.21745C13.0385 0.543626 12.4285 0.770137 11.7729 0.896983C11.2084 0.298994 10.5073 0 9.66961 0C8.88658 0 8.2128 0.280874 7.64828 0.842621C7.08377 1.40437 6.80151 2.07484 6.80151 2.85404C6.80151 3.07149 6.82882 3.28894 6.88345 3.50639C5.718 3.45203 4.61629 3.16209 3.5783 2.63659C2.55853 2.11108 1.69355 1.40437 0.983351 0.516445C0.710198 0.951346 0.573621 1.43155 0.573621 1.95705C0.573621 2.97182 1.00156 3.76008 1.85744 4.32183C1.40219 4.32183 0.974246 4.20404 0.573621 3.96847V4.02283C0.573621 4.69331 0.783038 5.2913 1.20187 5.8168C1.63892 6.34231 2.19433 6.67754 2.86811 6.82251C2.61316 6.87687 2.35822 6.90405 2.10328 6.90405C1.92118 6.90405 1.73907 6.88593 1.55697 6.84969C1.75728 7.42956 2.09417 7.90976 2.56764 8.2903C3.05931 8.65272 3.61472 8.83393 4.23387 8.83393C3.19589 9.64937 2.01223 10.0571 0.682882 10.0571C0.46436 10.0571 0.236733 10.048 0 10.0299C1.34755 10.8816 2.81348 11.3074 4.39776 11.3074C5.67248 11.3074 6.83793 11.0628 7.89412 10.5735C8.95031 10.0843 9.80619 9.45004 10.4618 8.67084C11.1355 7.87352 11.6545 7.00372 12.0187 6.06143C12.3829 5.10103 12.565 4.14062 12.565 3.18021C12.565 3.05337 12.565 2.93558 12.565 2.82686C13.1296 2.41008 13.603 1.91175 13.9854 1.33188C13.4573 1.56746 12.911 1.72148 12.3465 1.79397C12.9657 1.41343 13.3845 0.887923 13.603 0.21745Z" fill="white"/>
</svg>
