<svg width="48" height="52" viewBox="0 0 48 52" fill="none" xmlns="http://www.w3.org/2000/svg">
<path d="M39.2237 27.4151L30.3632 20.1209C30.2142 19.9982 30.0284 19.934 29.8332 19.9359L27.8936 19.9684C27.7549 19.5022 27.5352 19.0705 27.2499 18.6906V0.812865C27.2499 0.283118 26.7513 -0.103325 26.2404 0.0246426C23.9521 0.596639 22.223 2.46954 21.8353 4.79612L19.9486 16.1166C19.9168 16.307 19.9539 16.5027 20.0533 16.6682L21.0525 18.3339C20.7241 18.6805 20.4556 19.0842 20.2646 19.5292L4.78404 28.4671C4.326 28.7315 4.23947 29.3561 4.60621 29.7355C6.25436 31.4399 8.74333 31.9877 10.941 31.1644L20.3889 27.6249L18.3812 50.3751H14.2501C13.8014 50.3751 13.4376 50.7389 13.4376 51.1876C13.4376 51.6363 13.8014 52.0001 14.2501 52.0001H33.75C34.1987 52.0001 34.5625 51.6363 34.5625 51.1876C34.5625 50.7389 34.1987 50.3751 33.75 50.3751H29.619L27.5498 26.9273L39.9661 34.0958C40.4225 34.3596 41.008 34.1246 41.1535 33.6156C41.8021 31.3483 41.0447 28.9143 39.2237 27.4151ZM24.0001 23.5627C22.6561 23.5627 21.5626 22.4692 21.5626 21.1252C21.5626 19.7813 22.6561 18.6878 24.0001 18.6878C25.344 18.6878 26.4375 19.7813 26.4375 21.1252C26.4375 22.4692 25.344 23.5627 24.0001 23.5627ZM23.4382 5.06343C23.659 3.73846 24.4795 2.6161 25.6251 1.99393V17.403C24.6207 16.9628 23.4449 16.9376 22.3861 17.398L21.6008 16.0888L23.4382 5.06343ZM10.3709 29.6428C9.11292 30.1138 7.73086 29.9646 6.61937 29.2837L19.9636 21.5794C20.0918 22.7261 20.6985 23.7301 21.5796 24.3859L20.838 25.7215L10.3709 29.6428ZM27.9876 50.3751H20.0124L22.0925 26.8059C22.1225 26.7576 22.2627 26.5028 23.0552 25.0757C23.55 25.194 24.0211 25.2133 24.4848 25.1579L25.8308 25.935L27.9876 50.3751ZM26.4101 24.3931C27.2937 23.7398 27.9034 22.7372 28.0349 21.5912L29.5614 21.5656L38.1909 28.6697C39.2278 29.5234 39.7896 30.7952 39.7558 32.0983L26.4101 24.3931Z" fill="#3A954F"/>
<path d="M11.8125 6.09424C11.8125 4.52621 10.5368 3.25049 8.96875 3.25049H7.75C7.3013 3.25049 6.9375 3.61429 6.9375 4.06299C6.9375 4.51169 7.3013 4.87549 7.75 4.87549H8.96875C9.64079 4.87549 10.1875 5.4222 10.1875 6.09424C10.1875 6.76628 9.64079 7.31299 8.96875 7.31299H1.25C0.801297 7.31299 0.4375 7.67678 0.4375 8.12549C0.4375 8.57419 0.801297 8.93799 1.25 8.93799H8.96875C10.5368 8.93799 11.8125 7.66236 11.8125 6.09424Z" fill="#3A954F"/>
<path d="M4.5 11.3752C4.5 11.8239 4.8638 12.1877 5.3125 12.1877H13.0312C13.7033 12.1877 14.25 12.7345 14.25 13.4065C14.25 14.0785 13.7033 14.6252 13.0312 14.6252H11.8125C11.3638 14.6252 11 14.989 11 15.4377C11 15.8864 11.3638 16.2502 11.8125 16.2502H13.0312C14.5993 16.2502 15.875 14.9745 15.875 13.4065C15.875 11.8385 14.5993 10.5627 13.0312 10.5627H5.3125C4.8637 10.5627 4.5 10.9266 4.5 11.3752Z" fill="#3A954F"/>
<path d="M32.125 13.0002H39.8438C41.4118 13.0002 42.6875 11.7245 42.6875 10.1565C42.6875 8.58847 41.4118 7.31274 39.8438 7.31274H38.625C38.1763 7.31274 37.8125 7.67654 37.8125 8.12524C37.8125 8.57395 38.1763 8.93774 38.625 8.93774H39.8438C40.5158 8.93774 41.0625 9.48445 41.0625 10.1565C41.0625 10.8285 40.5158 11.3752 39.8438 11.3752H32.125C31.6763 11.3752 31.3125 11.739 31.3125 12.1877C31.3125 12.6364 31.6762 13.0002 32.125 13.0002Z" fill="#3A954F"/>
<path d="M44.7188 14.6252H43.5C43.0513 14.6252 42.6875 14.989 42.6875 15.4377C42.6875 15.8864 43.0513 16.2502 43.5 16.2502H44.7188C45.3908 16.2502 45.9375 16.797 45.9375 17.469C45.9375 18.141 45.3908 18.6877 44.7188 18.6877H37C36.5513 18.6877 36.1875 19.0515 36.1875 19.5002C36.1875 19.9489 36.5513 20.3127 37 20.3127H44.7188C46.2868 20.3127 47.5625 19.037 47.5625 17.469C47.5625 15.901 46.2868 14.6252 44.7188 14.6252Z" fill="#3A954F"/>
</svg>
