<svg width="52" height="52" viewBox="0 0 52 52" fill="none" xmlns="http://www.w3.org/2000/svg">
<g clip-path="url(#clip0_1_4437)">
<path d="M8.10556 20.3372C9.01625 21.1544 9.53543 22.3211 9.53289 23.5447V25.9999C9.53512 26.6247 9.87444 27.1996 10.4203 27.5035C10.4151 27.5806 10.3995 27.6543 10.3995 27.7331C10.4054 29.309 11.4735 30.6827 12.9995 31.0767V46.7995C12.9995 48.714 14.5515 50.2661 16.466 50.2661H26.8658C26.8658 51.2234 27.6418 51.9994 28.5991 51.9994H40.7323C41.6896 51.9994 42.4656 51.2234 42.4656 50.2661V49.3994C42.4597 47.8235 41.3915 46.4499 39.8657 46.0559V43.3328H50.2655C50.8096 43.3331 51.3223 43.0779 51.65 42.6435C51.9778 42.2092 52.0825 41.6461 51.9329 41.1229L47.2279 24.6566C47.0133 23.9135 46.3339 23.4015 45.5605 23.4H23.7712C22.9983 23.4025 22.3197 23.9143 22.1046 24.6566L17.4004 41.1229C17.2508 41.6457 17.3554 42.2086 17.6827 42.6428C18.01 43.0771 18.5222 43.3326 19.0661 43.3328H29.4659V46.0559C28.2531 46.3729 27.3061 47.32 26.989 48.5327H16.4661C15.5088 48.5327 14.7328 47.7567 14.7328 46.7994V31.0767C16.2587 30.6828 17.3268 29.3091 17.3327 27.7331C17.3327 27.6542 17.3171 27.5806 17.3119 27.5035C17.8578 27.1995 18.1971 26.6247 18.1994 25.9999V23.5473C18.2195 22.2921 18.7648 21.103 19.703 20.2687C22.3154 17.8877 23.22 14.1586 21.989 10.8451C20.7579 7.53173 17.6378 5.29791 14.1044 5.20031C11.7649 5.13592 9.49887 6.02051 7.82159 7.65279C6.14432 9.28507 5.19879 11.5264 5.19971 13.8668C5.20164 16.3393 6.25888 18.6932 8.10556 20.3372ZM38.9991 41.5996H35.5325V36.3997H41.7213L42.5204 41.5996H38.9991ZM28.6079 30.3332H33.7992V34.6665H27.9926L28.6079 30.3332ZM26.2385 34.6664H21.0472L22.2856 30.3331H26.8572L26.2385 34.6664ZM35.5325 30.3332H40.7887L41.4544 34.6665H35.5326V30.3332H35.5325ZM48.2852 34.6664H43.2084L42.542 30.3331H47.0485L48.2852 34.6664ZM44.2735 41.5996L43.4744 36.3997H48.781L50.2656 41.5996H44.2735ZM46.551 28.5998H42.275L41.742 25.1333H45.5596L46.551 28.5998ZM40.5217 28.5998H35.5325V25.1333H39.9888L40.5217 28.5998ZM33.7992 25.1332V28.5997H28.8592L29.3541 25.1332H33.7992ZM27.6 25.1332L27.1051 28.5997H22.7805L23.7712 25.1332H27.6ZM20.5524 36.3997H25.9907L25.248 41.5996H19.0662L20.5524 36.3997ZM27.7413 36.3997H33.7992V41.5996H26.9986L27.7413 36.3997ZM38.1324 43.3329V45.9329H31.1992V43.3329H38.1324ZM28.5993 49.3994C28.5993 48.4421 29.3753 47.6661 30.3326 47.6661H38.9991C39.9564 47.6661 40.7324 48.4421 40.7324 49.3994V50.2661H28.5993V49.3994ZM16.4661 24.2666V25.9999H11.2662V24.2666H16.4661ZM13.8662 29.4665C12.9089 29.4665 12.1328 28.6904 12.1328 27.7331H15.5995C15.5995 28.6904 14.8235 29.4665 13.8662 29.4665ZM9.03027 8.89914C10.3213 7.6339 12.0585 6.92785 13.8662 6.93354H14.0585C16.8836 7.01326 19.3776 8.79992 20.362 11.4491C21.3464 14.0984 20.6241 17.08 18.5365 18.9851C17.5058 19.9179 16.8123 21.1653 16.564 22.5331H11.1735C10.9504 21.1859 10.2748 19.9549 9.25817 19.0431C7.82099 17.7645 6.98017 15.9459 6.937 14.0229C6.89374 12.0997 7.65209 10.2452 9.03027 8.9033V8.89914Z" fill="#3A954F"/>
<path d="M9.53322 14.7334C10.0119 14.7334 10.3998 14.3454 10.3998 13.8668C10.3998 11.9523 11.9519 10.4002 13.8664 10.4002C14.3451 10.4002 14.733 10.0122 14.733 9.53361C14.733 9.05495 14.345 8.66699 13.8664 8.66699C10.9958 8.66984 8.66935 10.9963 8.6665 13.8669C8.6665 14.3454 9.05457 14.7334 9.53322 14.7334Z" fill="#3A954F"/>
<path d="M13.8661 3.46712C14.3448 3.46712 14.7328 3.07905 14.7328 2.60049V0.867121C14.7328 0.388457 14.3447 0.000488281 13.8661 0.000488281C13.3876 0.000488281 12.9995 0.388457 12.9995 0.867121V2.60049C12.9995 3.07915 13.3876 3.46712 13.8661 3.46712Z" fill="#3A954F"/>
<path d="M24.2661 13.8669C24.2661 14.3455 24.6542 14.7335 25.1327 14.7335H26.8661C27.3448 14.7335 27.7327 14.3455 27.7327 13.8669C27.7327 13.3882 27.3448 13.0002 26.8661 13.0002H25.1327C24.6542 13.0002 24.2661 13.3882 24.2661 13.8669Z" fill="#3A954F"/>
<path d="M0.866633 14.7335H2.6C3.07866 14.7335 3.46663 14.3455 3.46663 13.8669C3.46663 13.3882 3.07856 13.0002 2.6 13.0002H0.866633C0.387969 13.0002 0 13.3883 0 13.8669C0 14.3454 0.38807 14.7335 0.866633 14.7335Z" fill="#3A954F"/>
<path d="M7.48272 4.54348C7.72362 4.9545 8.25114 5.09395 8.66369 4.85568C9.07623 4.61752 9.21923 4.09092 8.98371 3.67674L8.11708 2.17565C7.96341 1.90529 7.6766 1.73802 7.36562 1.73731C7.05463 1.7366 6.76711 1.90265 6.61223 2.1723C6.45734 2.44195 6.45876 2.77396 6.61608 3.04228L7.48272 4.54348Z" fill="#3A954F"/>
<path d="M19.0662 4.8608C19.4807 5.10008 20.0107 4.9581 20.2501 4.54362L21.1167 3.04253C21.2741 2.7742 21.2755 2.44219 21.1206 2.17254C20.9657 1.90289 20.6782 1.73684 20.3672 1.73755C20.0562 1.73826 19.7694 1.90554 19.6158 2.17589L18.7491 3.67699C18.5097 4.09146 18.6517 4.62142 19.0662 4.8608Z" fill="#3A954F"/>
<path d="M23.624 9.10028C23.7761 9.10059 23.9257 9.06057 24.0574 8.9842L25.5584 8.11757C25.8288 7.9639 25.9961 7.67709 25.9968 7.3661C25.9975 7.05512 25.8314 6.7676 25.5618 6.61271C25.2922 6.45783 24.9601 6.45925 24.6918 6.61657L23.1907 7.48321C22.851 7.67932 22.6854 8.07917 22.7869 8.458C22.8885 8.83683 23.2318 9.10028 23.624 9.10028Z" fill="#3A954F"/>
<path d="M3.67626 18.7496L2.17516 19.6163C1.9048 19.7699 1.73753 20.0567 1.73682 20.3677C1.73611 20.6787 1.90216 20.9662 2.17181 21.1211C2.44146 21.276 2.77347 21.2746 3.0418 21.1173L4.54289 20.2506C4.81325 20.097 4.98052 19.8101 4.98123 19.4992C4.98194 19.1882 4.81589 18.9007 4.54624 18.7458C4.27659 18.5909 3.94458 18.5923 3.67626 18.7496Z" fill="#3A954F"/>
<path d="M23.1898 20.2506L24.6909 21.1172C24.9592 21.2746 25.2912 21.276 25.5608 21.1211C25.8305 20.9662 25.9965 20.6787 25.9958 20.3677C25.9951 20.0567 25.8278 19.7699 25.5575 19.6163L24.0564 18.7496C23.6422 18.5142 23.1157 18.6571 22.8775 19.0696C22.6393 19.4822 22.7787 20.0096 23.1898 20.2506Z" fill="#3A954F"/>
<path d="M2.17516 8.11755L3.67625 8.98419C3.94458 9.14151 4.27659 9.14293 4.54624 8.98805C4.81589 8.83316 4.98194 8.54564 4.98123 8.23466C4.98052 7.92367 4.81325 7.63686 4.54289 7.4832L3.04179 6.61656C2.62762 6.38114 2.10112 6.52404 1.86286 6.93659C1.62459 7.34913 1.76414 7.87665 2.17516 8.11755Z" fill="#3A954F"/>
</g>
<defs>
<clipPath id="clip0_1_4437">
<rect width="52" height="52" fill="white"/>
</clipPath>
</defs>
</svg>
