<svg width="52" height="52" viewBox="0 0 52 52" fill="none" xmlns="http://www.w3.org/2000/svg">
<path d="M25.9997 4.09497C23.8839 4.09497 22.1626 5.81626 22.1626 7.93212C22.1626 10.048 23.8839 11.7692 25.9997 11.7692C28.1156 11.7692 29.8369 10.0478 29.8369 7.93212C29.837 5.81626 28.1156 4.09497 25.9997 4.09497ZM25.9997 10.2377C24.7284 10.2377 23.694 9.20338 23.694 7.93202C23.694 6.66065 24.7283 5.62623 25.9997 5.62623C27.2712 5.62623 28.3055 6.66055 28.3055 7.93202C28.3055 9.20348 27.2712 10.2377 25.9997 10.2377Z" fill="white"/>
<path d="M26.0001 0C25.577 0 25.2344 0.342876 25.2344 0.765683V1.78944C25.2344 2.21234 25.5771 2.55512 26.0001 2.55512C26.423 2.55512 26.7657 2.21224 26.7657 1.78944V0.765683C26.7658 0.342876 26.4231 0 26.0001 0Z" fill="white"/>
<path d="M22.198 3.04717L21.4741 2.32333C21.1752 2.02433 20.6903 2.02443 20.3912 2.32333C20.0922 2.62234 20.0922 3.1072 20.3913 3.4063L21.1152 4.13024C21.2647 4.27974 21.4607 4.35449 21.6566 4.35449C21.8525 4.35449 22.0485 4.27974 22.1981 4.13014C22.4971 3.83104 22.4971 3.34617 22.198 3.04717Z" fill="white"/>
<path d="M19.8573 7.16626H18.8336C18.4105 7.16626 18.0679 7.50914 18.0679 7.93194C18.0679 8.35485 18.4106 8.69763 18.8336 8.69763H19.8573C20.2803 8.69763 20.623 8.35475 20.623 7.93194C20.623 7.50914 20.2802 7.16626 19.8573 7.16626Z" fill="white"/>
<path d="M22.1977 11.7343C21.8986 11.4353 21.4138 11.4353 21.1146 11.7343L20.3908 12.4581C20.0918 12.7571 20.0918 13.242 20.3908 13.541C20.5404 13.6905 20.7364 13.7653 20.9323 13.7653C21.1282 13.7653 21.3242 13.6906 21.4738 13.541L22.1977 12.8171C22.4967 12.5181 22.4967 12.0333 22.1977 11.7343Z" fill="white"/>
<path d="M26.0001 13.3091C25.577 13.3091 25.2344 13.652 25.2344 14.0748V15.0985C25.2344 15.5214 25.5771 15.8642 26.0001 15.8642C26.423 15.8642 26.7657 15.5213 26.7657 15.0985V14.0748C26.7658 13.652 26.4231 13.3091 26.0001 13.3091Z" fill="white"/>
<path d="M31.6088 12.4582L30.8849 11.7343C30.5859 11.4353 30.1011 11.4352 29.802 11.7342C29.5029 12.0332 29.5029 12.5181 29.8019 12.8172L30.5257 13.541C30.6753 13.6905 30.8712 13.7653 31.0672 13.7653C31.2632 13.7653 31.4592 13.6905 31.6087 13.541C31.9078 13.242 31.9078 12.7572 31.6088 12.4582Z" fill="white"/>
<path d="M33.1664 7.1665H32.1426C31.7196 7.1665 31.377 7.50938 31.377 7.93219C31.377 8.35499 31.7197 8.69787 32.1426 8.69787H33.1664C33.5894 8.69787 33.9321 8.35499 33.9321 7.93219C33.9321 7.50938 33.5894 7.1665 33.1664 7.1665Z" fill="white"/>
<path d="M31.6086 2.32309C31.3097 2.02409 30.8248 2.02419 30.5257 2.32309L29.8019 3.04693C29.5029 3.34593 29.5029 3.83079 29.802 4.12989C29.9514 4.2795 30.1474 4.35425 30.3433 4.35425C30.5392 4.35425 30.7352 4.2795 30.8848 4.12989L31.6087 3.40605C31.9077 3.10705 31.9077 2.62219 31.6086 2.32309Z" fill="white"/>
<path d="M47.2391 39.2216C47.2385 39.2082 47.2384 39.1949 47.2371 39.1815C47.2344 39.1546 47.2304 39.128 47.2249 39.102C47.2248 39.1014 47.2248 39.1009 47.2246 39.1003L45.8609 32.6228C45.8604 32.6205 45.8599 32.6183 45.8595 32.6159L44.4959 26.1389C44.4954 26.1365 44.4949 26.1343 44.4945 26.132L43.1296 19.6485C43.055 19.2941 42.7424 19.0405 42.3802 19.0405H9.61918C9.25701 19.0405 8.9445 19.2941 8.86985 19.6485L7.50525 26.1312C7.50464 26.134 7.50403 26.1366 7.50353 26.1394L6.14004 32.6165C6.13964 32.6184 6.13923 32.6203 6.13893 32.6221L4.77534 39.0997C4.76966 39.127 4.76529 39.155 4.76255 39.1832C4.76194 39.1897 4.76204 39.1964 4.76153 39.2029C4.76021 39.2211 4.75879 39.2393 4.75879 39.2578V42.3294C4.75879 42.7523 5.10156 43.0951 5.52447 43.0951H23.6981V47.3969H17.8093C17.3863 47.3969 17.0436 47.7398 17.0436 48.1626V50.4685H9.61928C9.19628 50.4685 8.8536 50.8113 8.8536 51.2341C8.8536 51.6569 9.19638 51.9998 9.61928 51.9998H17.8094H34.19H42.379C42.802 51.9998 43.1447 51.6569 43.1447 51.2341C43.1447 50.8113 42.8019 50.4685 42.379 50.4685H34.9558V48.1626C34.9558 47.7397 34.613 47.3969 34.1901 47.3969H28.3013V43.0951H46.475C46.8981 43.0951 47.2407 42.7522 47.2407 42.3294V39.2716C47.2408 39.2705 47.2408 39.2693 47.2408 39.2681V39.2581C47.2409 39.2457 47.2397 39.2338 47.2391 39.2216ZM45.5316 38.4923H33.539L33.1913 33.5397H44.489L45.5316 38.4923ZM43.124 27.0559L44.1667 32.0084H33.0839L32.7362 27.0559H43.124ZM41.759 20.572L42.8017 25.5245H32.6288L32.2811 20.572H41.759ZM21.2534 20.572H30.746L31.0936 25.5245H20.9059L21.2534 20.572ZM20.7985 27.0559H31.2011L31.5487 32.0084H20.451L20.7985 27.0559ZM20.3436 33.5399H31.6562L32.0037 38.4923H19.9961L20.3436 33.5399ZM10.2405 20.572H19.7183L19.3707 25.5245H9.1979L10.2405 20.572ZM8.87564 27.0559H19.2633L18.9157 32.0084H7.833L8.87564 27.0559ZM33.4244 48.9286V50.4687H18.5752V48.9286H24.464H27.5357H33.4244ZM25.2297 47.3971V43.0953H26.7699V47.3971H25.2297ZM27.5445 41.5638C27.5416 41.5638 27.5386 41.5634 27.5357 41.5634H24.464C24.4611 41.5634 24.4581 41.5638 24.4552 41.5638H6.29015V40.0237H9.93779C10.3608 40.0237 10.7035 39.6809 10.7035 39.258C10.7035 38.8351 10.3607 38.4924 9.93779 38.4924H6.46809L7.51064 33.5399H18.8083L18.4607 38.4923H13.2491C12.8261 38.4923 12.4834 38.8351 12.4834 39.2579C12.4834 39.6809 12.8261 40.0236 13.249 40.0236H19.174C19.1745 40.0236 19.1749 40.0236 19.1754 40.0236C19.1757 40.0236 19.1762 40.0236 19.1765 40.0236H32.8232C32.8235 40.0236 32.8239 40.0236 32.8242 40.0236C32.8247 40.0236 32.8251 40.0236 32.8256 40.0236H45.7093V41.5637H27.5445V41.5638Z" fill="white"/>
</svg>
