<svg width="40" height="40" viewBox="0 0 40 40" fill="none" xmlns="http://www.w3.org/2000/svg">
<path d="M3.58103 7.2557C3.38754 7.2557 3.19376 7.18429 3.04239 7.04025C2.72989 6.74301 2.71768 6.24832 3.01523 5.93582L3.0369 5.91293C3.33536 5.60134 3.82974 5.59036 4.14163 5.88851C4.45322 6.18698 4.4642 6.68136 4.16574 6.99325L4.14713 7.01309C3.99362 7.17422 3.78732 7.2557 3.58103 7.2557Z" fill="white"/>
<path d="M24.3298 40C20.7022 40 17.3251 38.3102 15.1489 35.4431C13.5983 36.3821 11.8338 36.875 10 36.875C4.50562 36.875 0.0357055 32.4051 0.0357055 26.9107C0.0357055 24.4882 0.89386 22.1988 2.46643 20.3882C0.870972 18.4393 0 16.0107 0 13.4732C0 11.8201 0.360107 10.2313 1.07025 8.75122C1.25671 8.36243 1.72333 8.19794 2.11243 8.38501C2.50153 8.57178 2.66541 9.03839 2.47894 9.42749C1.87073 10.6946 1.5625 12.0557 1.5625 13.4732C1.5625 15.8578 2.46002 18.1302 4.08936 19.8712C4.37775 20.1791 4.3692 20.6604 4.07043 20.9586C2.4762 22.5467 1.5979 24.6606 1.5979 26.9107C1.59821 31.5436 5.36713 35.3125 10 35.3125C11.7691 35.3125 13.4613 34.769 14.8941 33.7405C15.0668 33.6163 15.2826 33.5681 15.4916 33.6069C15.7007 33.6453 15.885 33.7677 16.0022 33.9453C17.8546 36.7581 20.9677 38.4375 24.3301 38.4375C29.0887 38.4375 33.2016 35.0528 34.1098 30.3891C34.166 30.1001 34.3802 29.8669 34.6637 29.787C36.8857 29.158 38.4375 27.1054 38.4375 24.7946C38.4375 23.028 37.5497 21.3986 36.0629 20.4361C35.8743 20.314 35.7474 20.1169 35.7147 19.8944C35.6818 19.6722 35.7462 19.4467 35.8914 19.2752C37.5333 17.3364 38.4375 14.8682 38.4375 12.3248C38.4375 6.39038 33.6096 1.5625 27.6752 1.5625C23.9771 1.5625 20.5811 3.42743 18.5913 6.55151C18.4659 6.74866 18.2587 6.87927 18.0264 6.90735C17.7945 6.93542 17.5623 6.85822 17.3932 6.69708C15.6433 5.02716 13.3475 4.10767 10.928 4.10767C9.37469 4.10767 7.83661 4.49524 6.4798 5.22919C6.10016 5.43457 5.62622 5.29327 5.42084 4.91364C5.21576 4.534 5.35675 4.06006 5.73639 3.85498C7.32086 2.99805 9.11591 2.54517 10.928 2.54517C13.4457 2.54517 15.8493 3.39874 17.7878 4.96552C20.1108 1.84021 23.7436 0 27.6752 0C34.4711 0 40 5.52887 40 12.3248C40 14.9591 39.1525 17.5238 37.5992 19.6329C39.1159 20.9085 40 22.7829 40 24.7946C40 27.6407 38.1906 30.1859 35.545 31.1435C34.3219 36.3028 29.6783 40 24.3298 40Z" fill="white"/>
<path d="M27.6754 5.78125C27.6736 5.78125 27.6715 5.78125 27.6696 5.78125C27.2387 5.77789 26.8862 5.42633 26.8887 4.99542C26.8911 4.56573 27.246 4.21875 27.6754 4.21875H27.6785C28.1094 4.22028 28.4634 4.57062 28.4625 5.00153C28.4619 5.43243 28.1063 5.78125 27.6754 5.78125Z" fill="white"/>
<path d="M34.9999 13.1061C34.5684 13.1061 34.2187 12.756 34.2187 12.3248C34.2187 9.83276 32.7688 7.52014 30.5252 6.4325C30.137 6.24451 29.9746 5.77698 30.1629 5.38879C30.3509 5.00061 30.8184 4.83856 31.2066 5.02655C32.557 5.68115 33.6987 6.69647 34.5086 7.96295C35.3411 9.26453 35.7812 10.773 35.7812 12.3248C35.7812 12.756 35.4315 13.1061 34.9999 13.1061Z" fill="white"/>
<path d="M9.99994 32.6562C6.8316 32.6562 4.25439 30.0787 4.25439 26.9106C4.25439 26.4791 4.60413 26.1294 5.03564 26.1294C5.46716 26.1294 5.81689 26.4791 5.81689 26.9106C5.81689 29.2172 7.69342 31.0937 9.99994 31.0937C10.4315 31.0937 10.7812 31.4434 10.7812 31.8749C10.7812 32.3065 10.4315 32.6562 9.99994 32.6562Z" fill="white"/>
<path d="M23.4629 23.8367C20.4474 23.8367 17.9941 21.3834 17.9941 18.3679C17.9941 15.3525 20.4474 12.8992 23.4629 12.8992C26.4786 12.8992 28.9316 15.3525 28.9316 18.3679C28.9316 21.3834 26.4786 23.8367 23.4629 23.8367ZM23.4629 14.4617C21.3093 14.4617 19.5566 16.214 19.5566 18.3679C19.5566 20.5219 21.3093 22.2742 23.4629 22.2742C25.6168 22.2742 27.3691 20.5219 27.3691 18.3679C27.3691 16.214 25.6168 14.4617 23.4629 14.4617Z" fill="white"/>
<path d="M12.3684 23.8342C10.9683 23.8342 9.56783 23.3011 8.50154 22.2351C6.36928 20.1029 6.36928 16.6333 8.50154 14.5011C10.6338 12.3688 14.1033 12.3688 16.2356 14.5011C16.5408 14.8062 16.5408 15.3009 16.2356 15.6061C15.9304 15.911 15.4357 15.911 15.1306 15.6061C14.393 14.8682 13.4118 14.4617 12.3684 14.4617C11.3253 14.4617 10.3442 14.8682 9.60658 15.6061C8.08345 17.1289 8.08345 19.6073 9.60658 21.1301C10.3442 21.868 11.3253 22.2742 12.3684 22.2742C13.4118 22.2742 14.393 21.868 15.1306 21.1301C15.4357 20.8252 15.9304 20.8252 16.2356 21.1301C16.5408 21.4353 16.5408 21.9299 16.2356 22.2351C15.1693 23.3011 13.7689 23.8342 12.3684 23.8342Z" fill="white"/>
<path d="M32.3189 27.1008H29.8076C29.4701 27.1008 29.1707 26.8839 29.0654 26.5631C28.9601 26.2424 29.0731 25.8902 29.345 25.69C30.06 25.162 31.5374 23.7646 31.5374 22.8168C31.5374 22.5165 31.4598 22.3425 31.0631 22.3425C30.8019 22.3425 30.5889 22.5552 30.5889 22.8168C30.5889 23.2483 30.2391 23.598 29.8076 23.598C29.3764 23.598 29.0264 23.2483 29.0264 22.8168C29.0264 21.6937 29.9401 20.78 31.0631 20.78C32.2814 20.78 33.0999 21.5985 33.0999 22.8168C33.0999 23.8083 32.4721 24.783 31.805 25.5383H32.3186C32.7501 25.5383 33.0999 25.8881 33.0999 26.3196C33.0999 26.7511 32.7501 27.1008 32.3189 27.1008Z" fill="white"/>
</svg>
