<svg width="18" height="15" viewBox="0 0 18 15" fill="none" xmlns="http://www.w3.org/2000/svg">
<path d="M17 7.4C17 10.417 17 11.9255 16.0627 12.8627C15.1255 13.8 13.617 13.8 10.6 13.8H7.4C4.38301 13.8 2.87452 13.8 1.93726 12.8627C1 11.9255 1 10.417 1 7.4C1 4.38301 1 2.87452 1.93726 1.93726C2.87452 1 4.38301 1 7.4 1H10.6C13.617 1 15.1255 1 16.0627 1.93726C16.5853 2.4598 16.8165 3.15991 16.9188 4.2" stroke="white" stroke-opacity="0.5" stroke-width="1.5" stroke-linecap="round"/>
<path d="M13.7992 4.19946L12.0721 5.63873C10.6028 6.86315 9.86814 7.47536 8.99922 7.47536C8.47978 7.47536 8.00832 7.25658 7.39922 6.81902M4.19922 4.19946L4.91922 4.79946L5.63922 5.39946" stroke="white" stroke-opacity="0.5" stroke-width="1.5" stroke-linecap="round"/>
</svg>
