<svg width="20" height="20" viewBox="0 0 20 20" fill="none" xmlns="http://www.w3.org/2000/svg">
<path d="M3.7002 6.86317C3.7002 3.62503 6.5208 1 10.0002 1C13.4796 1 16.3002 3.62503 16.3002 6.86317C16.3002 10.0759 14.2895 13.8249 11.1523 15.1656C10.4209 15.4781 9.57947 15.4781 8.84814 15.1656C5.71094 13.8249 3.7002 10.0759 3.7002 6.86317Z" stroke="#FF7029" stroke-width="1.5"/>
<path d="M11.8002 7.3C11.8002 8.29411 10.9943 9.1 10.0002 9.1C9.00608 9.1 8.2002 8.29411 8.2002 7.3C8.2002 6.30589 9.00608 5.5 10.0002 5.5C10.9943 5.5 11.8002 6.30589 11.8002 7.3Z" stroke="#FF7029" stroke-width="1.5"/>
<path d="M18.0645 13.1501C18.6633 13.6924 19 14.3036 19 14.9501C19 17.1869 14.9706 19.0001 10 19.0001C5.02944 19.0001 1 17.1869 1 14.9501C1 14.3036 1.33671 13.6924 1.93552 13.1501" stroke="#FF7029" stroke-width="1.5" stroke-linecap="round"/>
</svg>
