<svg width="28" height="28" viewBox="0 0 28 28" fill="none" xmlns="http://www.w3.org/2000/svg">
<path d="M27.6728 26.0245L20.7147 19.0663C22.6108 16.7473 23.5431 13.7881 23.3187 10.801C23.0942 7.81379 21.7302 5.02716 19.5088 3.01747C17.2874 1.00778 14.3786 -0.0712239 11.3839 0.00365169C8.38926 0.0785273 5.53795 1.30155 3.41975 3.41975C1.30155 5.53795 0.0785273 8.38926 0.00365169 11.3839C-0.0712239 14.3786 1.00778 17.2874 3.01747 19.5088C5.02716 21.7302 7.81379 23.0942 10.801 23.3187C13.7881 23.5431 16.7473 22.6108 19.0663 20.7147L26.0245 27.6728C26.2443 27.8851 26.5388 28.0026 26.8444 28C27.1501 27.9973 27.4424 27.8747 27.6586 27.6586C27.8747 27.4424 27.9973 27.1501 28 26.8444C28.0026 26.5388 27.8851 26.2443 27.6728 26.0245ZM11.6944 21.0201C9.84996 21.0201 8.04693 20.4731 6.51334 19.4484C4.97974 18.4237 3.78444 16.9672 3.0786 15.2632C2.37277 13.5591 2.18809 11.6841 2.54792 9.87505C2.90775 8.06605 3.79594 6.40437 5.10016 5.10016C6.40437 3.79594 8.06605 2.90775 9.87505 2.54792C11.6841 2.18809 13.5591 2.37277 15.2632 3.0786C16.9672 3.78444 18.4237 4.97974 19.4484 6.51334C20.4731 8.04693 21.0201 9.84996 21.0201 11.6944C21.0173 14.1669 20.0339 16.5373 18.2856 18.2856C16.5373 20.0339 14.1669 21.0173 11.6944 21.0201Z" fill="white"/>
</svg>
