<svg width="34" height="36" viewBox="0 0 34 36" fill="none" xmlns="http://www.w3.org/2000/svg">
<path d="M19.1457 35.9998C19.1457 31.4178 18.9023 27.3104 19.2314 23.2357C19.4577 20.3915 21.268 18.0613 23.7331 16.5165C26.6468 14.6819 29.6727 13.0152 32.7947 11.5254C32.9764 11.4403 33.3501 11.2603 33.9535 11.0344C34.0139 15.4486 33.7631 19.8617 33.2027 24.2437C32.9558 25.9914 31.6496 28.014 30.1925 29.0941C26.7742 31.6175 22.9891 33.6466 19.1457 35.9998Z" fill="#3A954F"/>
<path d="M14.4863 35.9998C14.4863 31.4178 14.7297 27.3104 14.404 23.2357C14.1743 20.3915 12.364 18.0613 9.89892 16.5165C6.92639 14.6509 4.19043 12.9523 1.18018 11.5254C0.998467 11.4403 0.628184 11.2603 0.021335 11.0344C0.021335 15.5608 -0.146663 19.9464 0.460186 24.2372C0.70704 25.9849 2.01331 28.0075 3.47043 29.0875C6.87153 31.6175 10.6532 33.6466 14.4863 35.9998Z" fill="#3A954F"/>
<path d="M2.19141 7.05806C6.23364 4.76705 9.73417 2.50551 13.5055 0.747978C16.1318 -0.479346 19.0975 -0.10624 21.6963 1.21272C24.7813 2.7739 27.766 4.50942 30.6345 6.41003C30.8025 6.52131 31.1453 6.73732 31.6459 7.14643C27.5317 9.2247 23.6848 11.4568 19.5946 13.0867C17.9249 13.7413 15.4804 13.6529 13.8004 12.9558C9.88846 11.3324 6.18564 9.13633 2.19141 7.05806Z" fill="#FF7029"/>
</svg>
